<svg xmlns="http://www.w3.org/2000/svg" width="1180" height="1180" viewBox="0 0 1180 1180">
<rect width="100%" height="100%" fill="#0b1020"/>
<style>text { font-family: SFMono-Regular, Menlo, Consolas, monospace; font-size: 14px; fill: #d8e2ff; } .title { fill: #8bd5ff; font-weight: 700; } .ok { fill: #a6e3a1; } .warn { fill: #f9e2af; }</style>
<text x="24" y="26" class="title">LithePG v1.0 Homebrew cask URL gate evidence</text>
<text x="24" y="46" class="">Captured: 2026-05-30 18:22 EDT</text>
<text x="24" y="66" class=""></text>
<text x="24" y="86" class="">== Final local verification after refactor ==</text>
<text x="24" y="106" class="">== bash script/test_v10_release_gate.sh ==</text>
<text x="24" y="126" class="ok">test_v10_release_gate passed</text>
<text x="24" y="146" class=""></text>
<text x="24" y="166" class="">== bash -n script/v10_release_gate.sh script/test_v10_release_gate.sh ==</text>
<text x="24" y="186" class="ok">bash -n passed</text>
<text x="24" y="206" class=""></text>
<text x="24" y="226" class="">== git diff --check ==</text>
<text x="24" y="246" class="ok">git diff --check passed</text>
<text x="24" y="266" class=""></text>
<text x="24" y="286" class="">== Swift build ==</text>
<text x="24" y="306" class="">[0/1] Planning build</text>
<text x="24" y="326" class="">Building for debugging...</text>
<text x="24" y="346" class="">[0/7] Write swift-version--58304C5D6DBC2206.txt</text>
<text x="24" y="366" class="ok">Build complete! (5.21s)</text>
<text x="24" y="386" class=""></text>
<text x="24" y="406" class="warn">== Fast preflight (--check-remote), expected blocked before publication ==</text>
<text x="24" y="426" class="">LithePG v1.0 fast publication preflight</text>
<text x="24" y="446" class="">Repository: /Users/omar/projects/lithepg</text>
<text x="24" y="466" class=""></text>
<text x="24" y="486" class="">Local git/tag readiness:</text>
<text x="24" y="506" class="">Git branch: main</text>
<text x="24" y="526" class="ok">Git status: changes present (expected clean before tagging/publishing)</text>
<text x="24" y="546" class="ok">Local tag v0.5: present</text>
<text x="24" y="566" class="ok">Local tag v1.0: absent</text>
<text x="24" y="586" class="ok">Remote origin tag v0.5: present</text>
<text x="24" y="606" class="ok">Remote origin tag v1.0: absent</text>
<text x="24" y="626" class=""></text>
<text x="24" y="646" class="">Release copy readiness:</text>
<text x="24" y="666" class="ok">Release copy placeholders: present in docs/releases/v1.0-draft.md</text>
<text x="24" y="686" class=""></text>
<text x="24" y="706" class="">Homebrew cask readiness:</text>
<text x="24" y="726" class="ok">Homebrew cask placeholders: present in packaging/homebrew/lithepg.rb</text>
<text x="24" y="746" class=""></text>
<text x="24" y="766" class="">Security policy readiness:</text>
<text x="24" y="786" class="ok">Security policy placeholders: present in SECURITY.md</text>
<text x="24" y="806" class="ok">Security policy placeholders: present in docs/SECURITY.md</text>
<text x="24" y="826" class=""></text>
<text x="24" y="846" class="">Release artifact readiness:</text>
<text x="24" y="866" class="warn">Release artifact zip: missing at dist/LithePG.app.zip</text>
<text x="24" y="886" class="warn">Release artifact SHA-256: missing</text>
<text x="24" y="906" class=""></text>
<text x="24" y="926" class="">External publication inputs (values redacted):</text>
<text x="24" y="946" class="warn">LITHEPG_CODESIGN_IDENTITY: missing</text>
<text x="24" y="966" class="warn">LITHEPG_NOTARY_PROFILE: missing</text>
<text x="24" y="986" class="warn">LITHEPG_SECURITY_CONTACT: missing</text>
<text x="24" y="1006" class="warn">LITHEPG_HOMEBREW_TAP: missing</text>
<text x="24" y="1026" class="">LITHEPG_GITHUB_ACTIONS_READY: not approved</text>
<text x="24" y="1046" class="">LITHEPG_RELEASE_COPY_APPROVED: not approved</text>
<text x="24" y="1066" class="">LITHEPG_PUBLICATION_APPROVED: not approved</text>
<text x="24" y="1086" class=""></text>
<text x="24" y="1106" class="warn">v1.0 publication blocked: 14 blocker(s) found.</text>
<text x="24" y="1126" class="warn">Resolve the release copy, Homebrew cask, security policy placeholders, release artifact zip/SHA-256 issues, missing/false external inputs, and any tag-readiness blockers before tagging or publishing.</text>
</svg>
